<svg width="100" height="100" viewBox="0 0 100 100" fill="none" xmlns="http://www.w3.org/2000/svg">
<g clip-path="url(#clip0)">
<path d="M58.195 24.919C64.579 24.919 70.431 26.4707 75.751 29.574C81.1597 32.5887 85.4157 36.9777 88.519 42.741C91.711 48.4157 93.307 55.0213 93.307 62.558C93.307 70.0947 91.711 76.7447 88.519 82.508C85.4157 88.2713 81.1597 92.7047 75.751 95.808C70.431 98.8227 64.579 100.33 58.195 100.33C49.2397 100.33 42.5897 97.8917 38.245 93.015V99H9.65V0.313994H39.708V31.17C43.964 27.0027 50.1263 24.919 58.195 24.919ZM51.013 76.922C54.471 76.922 57.3083 75.6807 59.525 73.198C61.7417 70.6267 62.85 67.08 62.85 62.558C62.85 58.036 61.7417 54.5337 59.525 52.051C57.3083 49.5683 54.471 48.327 51.013 48.327C47.555 48.327 44.7177 49.5683 42.501 52.051C40.2843 54.5337 39.176 58.036 39.176 62.558C39.176 67.08 40.2843 70.6267 42.501 73.198C44.7177 75.6807 47.555 76.922 51.013 76.922Z" fill="white"/>
</g>
<defs>
<clipPath id="clip0">
<rect width="100" height="100" fill="white"/>
</clipPath>
</defs>
</svg>
