<svg width="392" height="105" viewBox="0 0 392 105" fill="none" xmlns="http://www.w3.org/2000/svg">
<path d="M25.552 83.992H57.808V103H0.928009V1.91198H25.552V83.992Z" fill="black"/>
<path d="M117.361 104.008C107.857 104.008 99.121 101.8 91.153 97.384C83.281 92.968 76.993 86.824 72.289 78.952C67.681 70.984 65.377 62.056 65.377 52.168C65.377 42.28 67.681 33.4 72.289 25.528C76.993 17.656 83.281 11.512 91.153 7.09599C99.121 2.67999 107.857 0.471985 117.361 0.471985C126.865 0.471985 135.553 2.67999 143.425 7.09599C151.393 11.512 157.633 17.656 162.145 25.528C166.753 33.4 169.057 42.28 169.057 52.168C169.057 62.056 166.753 70.984 162.145 78.952C157.537 86.824 151.297 92.968 143.425 97.384C135.553 101.8 126.865 104.008 117.361 104.008ZM117.361 81.544C125.425 81.544 131.857 78.856 136.657 73.48C141.553 68.104 144.001 61 144.001 52.168C144.001 43.24 141.553 36.136 136.657 30.856C131.857 25.48 125.425 22.792 117.361 22.792C109.201 22.792 102.673 25.432 97.777 30.712C92.977 35.992 90.577 43.144 90.577 52.168C90.577 61.096 92.977 68.248 97.777 73.624C102.673 78.904 109.201 81.544 117.361 81.544Z" fill="black"/>
<path d="M249.86 33.88C248.036 30.52 245.396 27.976 241.94 26.248C238.58 24.424 234.596 23.512 229.988 23.512C222.02 23.512 215.636 26.152 210.836 31.432C206.036 36.616 203.636 43.576 203.636 52.312C203.636 61.624 206.132 68.92 211.124 74.2C216.212 79.384 223.172 81.976 232.004 81.976C238.052 81.976 243.14 80.44 247.268 77.368C251.492 74.296 254.564 69.88 256.484 64.12H225.236V45.976H278.804V68.872C276.98 75.016 273.86 80.728 269.444 86.008C265.124 91.288 259.604 95.56 252.884 98.824C246.164 102.088 238.58 103.72 230.132 103.72C220.148 103.72 211.22 101.56 203.348 97.24C195.572 92.824 189.476 86.728 185.06 78.952C180.74 71.176 178.58 62.296 178.58 52.312C178.58 42.328 180.74 33.448 185.06 25.672C189.476 17.8 195.572 11.704 203.348 7.38398C211.124 2.96798 220.004 0.759981 229.988 0.759981C242.084 0.759981 252.26 3.68798 260.516 9.54398C268.868 15.4 274.388 23.512 277.076 33.88H249.86Z" fill="black"/>
<path d="M340.252 104.008C330.748 104.008 322.012 101.8 314.044 97.384C306.172 92.968 299.884 86.824 295.18 78.952C290.572 70.984 288.268 62.056 288.268 52.168C288.268 42.28 290.572 33.4 295.18 25.528C299.884 17.656 306.172 11.512 314.044 7.09599C322.012 2.67999 330.748 0.471985 340.252 0.471985C349.756 0.471985 358.444 2.67999 366.316 7.09599C374.284 11.512 380.524 17.656 385.036 25.528C389.644 33.4 391.948 42.28 391.948 52.168C391.948 62.056 389.644 70.984 385.036 78.952C380.428 86.824 374.188 92.968 366.316 97.384C358.444 101.8 349.756 104.008 340.252 104.008ZM340.252 81.544C348.316 81.544 354.748 78.856 359.548 73.48C364.444 68.104 366.892 61 366.892 52.168C366.892 43.24 364.444 36.136 359.548 30.856C354.748 25.48 348.316 22.792 340.252 22.792C332.092 22.792 325.564 25.432 320.668 30.712C315.868 35.992 313.468 43.144 313.468 52.168C313.468 61.096 315.868 68.248 320.668 73.624C325.564 78.904 332.092 81.544 340.252 81.544Z" fill="black"/>
</svg>
